<svg width="50" height="60" viewBox="0 0 50 60" fill="none" xmlns="http://www.w3.org/2000/svg">
<g clip-path="url(#clip0_4_643)">
<path d="M25 7.5C20.067 7.5 16.0714 11.6977 16.0714 16.875V22.5H42.8571C46.7969 22.5 50 25.8633 50 30V52.5C50 56.6367 46.7969 60 42.8571 60H7.14286C3.19754 60 0 56.6367 0 52.5V30C0 25.8633 3.19754 22.5 7.14286 22.5H8.92857V16.875C8.92857 7.55508 16.1272 0 25 0C31.4174 0 36.942 3.94805 39.5201 9.64102C40.3683 11.5113 39.6094 13.7461 37.7344 14.6367C35.9487 15.5273 33.9174 14.7305 33.0692 12.8555C31.6295 9.6832 28.5603 7.5 25 7.5ZM28.5714 45C30.5469 45 32.1429 43.3242 32.1429 41.25C32.1429 39.1758 30.5469 37.5 28.5714 37.5H21.4286C19.4531 37.5 17.8571 39.1758 17.8571 41.25C17.8571 43.3242 19.4531 45 21.4286 45H28.5714Z" fill="#0A3871"/>
</g>
<defs>
<clipPath id="clip0_4_643">
<rect width="50" height="60" fill="white"/>
</clipPath>
</defs>
</svg>
